<svg height="48" width="48" xmlns="http://www.w3.org/2000/svg" xmlns:xlink="http://www.w3.org/1999/xlink"><radialGradient id="a" cx="17.3125" cy="25.53125" gradientTransform="matrix(1 0 0 .351613 0 16.55413)" gradientUnits="userSpaceOnUse" r="9.6875"><stop offset="0"/><stop offset="1" stop-opacity="0"/></radialGradient><path d="m27 25.53125a9.6875 3.40625 0 1 1 -19.375 0 9.6875 3.40625 0 1 1 19.375 0z" fill="url(#a)" opacity=".409091" transform="matrix(2.182912 0 0 2.182912 -13.50372 -14.35012)"/><path d="m46.138718 23.42804a22.008699 21.213203 0 1 1 -44.0173992 0 22.008699 21.213203 0 1 1 44.0173992 0z" fill="#f57900" stroke="#914900" stroke-linecap="round" stroke-linejoin="round" stroke-width=".982149" transform="matrix(.94463 0 0 .980053 1.504174 -1.556912)"/><path d="m46.138718 23.42804a22.008699 21.213203 0 1 1 -44.0173992 0 22.008699 21.213203 0 1 1 44.0173992 0z" fill="none" stroke="#fcaf3e" stroke-linecap="round" stroke-linejoin="round" stroke-width=".982149" transform="matrix(.914086 0 0 .948364 2.380576 -.905815)"/><path d="m21.464926 10.373268c-.127974 0-.23461.174494-.23461.383907l1.064769 14.440824c0 .209413.106636.383907.23461.383908 0 0 .840821.011903 1.533989 0 .228338-.003921.298214.020312.505314 0 .693168.011903 1.533989 0 1.533989 0 .127974 0 .23461-.174495.23461-.383908l1.064769-14.440824c0-.209413-.106636-.354376-.234611-.354376h-2.580711c-.009512-.001937-.008202-.029531-.018046-.029531z" fill="#fff"/><path d="m-11.875 34.0625a4.5625 3.8125 0 1 1 -9.125 0 4.5625 3.8125 0 1 1 9.125 0z" fill="#fff" transform="matrix(.504864 0 0 .604182 32.65935 9.608845)"/><path d="m43.676426 20.47678c0 10.830616-6.052169-4.306199-18.674738.386388-12.722516 4.729744-20.5666345 10.444228-20.5666345-.386388 0-10.8306173 8.7900665-19.62068231 19.6206865-19.62068231 10.830619 0 19.620686 8.79006501 19.620686 19.62068231z" fill="#fffeff" fill-opacity=".213904"/></svg>