<svg fill="none" height="48" viewBox="0 0 48 48" width="48" xmlns="http://www.w3.org/2000/svg"><g fill="#333"><path d="m18 28c0 2.7625-2.2375 5-5 5s-5-2.2375-5-5 2.2375-5 5-5 5 2.2375 5 5z"/><path d="m3 40.3333c0-3.5466 6.6625-5.3333 10-5.3333s10 1.7867 10 5.3333v2.6667h-20z"/><path d="m40 28c0 2.7625-2.2375 5-5 5s-5-2.2375-5-5 2.2375-5 5-5 5 2.2375 5 5z"/><path d="m28 27c0 2.21-1.79 4-4 4s-4-1.79-4-4 1.79-4 4-4 4 1.79 4 4z"/><path d="m25 40.3333c0-3.5466 6.6625-5.3333 10-5.3333s10 1.7867 10 5.3333v2.6667h-20z"/><g clip-rule="evenodd" fill-rule="evenodd"><path d="m28.7508 34.185c-.2669.0981-.5302.2023-.7883.3125-1.1711.5005-2.3537 1.1766-3.2725 2.081-.246.2423-.4795.5079-.69.7965-.2105-.2886-.444-.5542-.6901-.7965-.9187-.9044-2.1014-1.5805-3.2725-2.081-.258-.1102-.5213-.2144-.7883-.3125 1.5226-.7889 3.4807-1.185 4.7509-1.185 1.2701 0 3.2282.3961 4.7508 1.185z"/><path d="m19.0938 18c5.2467 0 9.5-3.3579 9.5-7.5 0-4.14214-4.2533-7.5-9.5-7.5s-9.49999 3.35786-9.49999 7.5c0 1.0062.25097 1.9661.70619 2.8428-1.00545 1.2324-1.25171 3.0983-1.29957 4.2711-.01742.4268.49792.6451.8401.3894.68627-.5129 1.77617-1.2085 3.19197-1.728 1.6448 1.0772 3.7573 1.7247 6.0613 1.7247z"/><path d="m26.3671 17.8655c2.5853-1.742 4.2363-4.3945 4.2363-7.3655 0-.79929-.1195-1.57553-.3445-2.31719.5901-.11938 1.208-.18281 1.8445-.18281 4.1421 0 7.5 2.6863 7.5 6 0 .9484-.275 1.8453-.7648 2.6427.4625.7834.6269 1.7657.6803 2.5048.0307.426-.4849.6494-.835.4046-.4333-.303-1.0234-.6592-1.7477-.9636-1.3053.8807-2.9916 1.4115-4.8328 1.4115-2.3013 0-4.3606-.8292-5.7363-2.1345z"/></g></g></svg>